<mxfile host="Electron" agent="Mozilla/5.0 (Windows NT 10.0; Win64; x64) AppleWebKit/537.36 (KHTML, like Gecko) draw.io/26.0.16 Chrome/132.0.6834.196 Electron/34.2.0 Safari/537.36" version="26.0.16">
  <diagram name="Page-1" id="lpUnfm5_lNVP8Nxv4EvT">
    <mxGraphModel dx="2963" dy="1271" grid="1" gridSize="10" guides="1" tooltips="1" connect="1" arrows="1" fold="1" page="1" pageScale="1" pageWidth="850" pageHeight="1100" math="0" shadow="0">
      <root>
        <mxCell id="0" />
        <mxCell id="1" parent="0" />
        <mxCell id="MTEvVDYGK0sBAC2YNGp0-1" value="&lt;font style=&quot;font-size: 16px;&quot;&gt;&lt;b style=&quot;font-size: 18px;&quot;&gt;device_manager&lt;/b&gt;&lt;/font&gt;" style="shape=cylinder3;whiteSpace=wrap;html=1;boundedLbl=1;backgroundOutline=1;size=15;fillColor=#d5e8d4;strokeColor=#82b366;strokeWidth=3;" parent="1" vertex="1">
          <mxGeometry x="-320" y="270" width="160" height="80" as="geometry" />
        </mxCell>
        <mxCell id="MTEvVDYGK0sBAC2YNGp0-2" value="&lt;font style=&quot;font-size: 16px;&quot;&gt;&lt;b style=&quot;font-size: 18px;&quot;&gt;automatics&lt;/b&gt;&lt;/font&gt;&lt;div&gt;&lt;span style=&quot;font-size: 16px;&quot;&gt;&lt;b&gt;&lt;br&gt;&lt;/b&gt;&lt;/span&gt;&lt;div&gt;RDKB&lt;/div&gt;&lt;div&gt;DB&lt;/div&gt;&lt;div&gt;&lt;span style=&quot;background-color: initial;&quot;&gt;MySqlProcedures&lt;/span&gt;&lt;/div&gt;&lt;/div&gt;" style="shape=cylinder3;whiteSpace=wrap;html=1;boundedLbl=1;backgroundOutline=1;size=15;fillColor=#dae8fc;strokeColor=#6c8ebf;strokeWidth=3;" parent="1" vertex="1">
          <mxGeometry x="-800" y="40" width="160" height="160" as="geometry" />
        </mxCell>
        <mxCell id="5eYZc-xgGTxoTWhnLy-0-2" value="" style="edgeStyle=orthogonalEdgeStyle;rounded=0;orthogonalLoop=1;jettySize=auto;html=1;exitX=0;exitY=0.5;exitDx=0;exitDy=0;" edge="1" parent="1" source="MTEvVDYGK0sBAC2YNGp0-7" target="MTEvVDYGK0sBAC2YNGp0-3">
          <mxGeometry relative="1" as="geometry">
            <mxPoint x="-350" y="-20" as="targetPoint" />
            <Array as="points" />
          </mxGeometry>
        </mxCell>
        <mxCell id="MTEvVDYGK0sBAC2YNGp0-3" value="&lt;font style=&quot;font-size: 18px;&quot;&gt;&lt;b&gt;automatics-props&lt;/b&gt;&lt;/font&gt;&lt;div&gt;(AutomaticsProps.war webapp)&lt;/div&gt;&lt;div&gt;&lt;br&gt;&lt;/div&gt;&lt;div&gt;automatics.properties&lt;br&gt;&lt;/div&gt;&lt;div&gt;device_config.json&lt;br&gt;&lt;/div&gt;&lt;div&gt;&lt;br&gt;&lt;/div&gt;&lt;div&gt;config.properties&lt;/div&gt;&lt;div&gt;user_management.properties&lt;br&gt;&lt;/div&gt;" style="rounded=1;whiteSpace=wrap;html=1;fillColor=#f5f5f5;fontColor=#333333;strokeColor=#666666;strokeWidth=3;" parent="1" vertex="1">
          <mxGeometry x="-680" y="600" width="200" height="160" as="geometry" />
        </mxCell>
        <mxCell id="MTEvVDYGK0sBAC2YNGp0-4" value="&lt;font style=&quot;font-size: 18px;&quot;&gt;&lt;b&gt;automatics&lt;/b&gt;&lt;/font&gt;&lt;div&gt;&lt;font style=&quot;font-size: 13px;&quot;&gt;(orchestration)&lt;/font&gt;&lt;br&gt;&lt;div&gt;(Automatics.war webapp)&lt;br&gt;&lt;/div&gt;&lt;div&gt;&lt;br&gt;&lt;/div&gt;&lt;div&gt;&lt;br&gt;&lt;/div&gt;&lt;/div&gt;" style="rounded=1;whiteSpace=wrap;html=1;fillColor=#dae8fc;strokeColor=#6c8ebf;strokeWidth=3;" parent="1" vertex="1">
          <mxGeometry x="-600" y="40" width="160" height="160" as="geometry" />
        </mxCell>
        <mxCell id="MTEvVDYGK0sBAC2YNGp0-5" value="&lt;font style=&quot;font-size: 18px;&quot;&gt;&lt;b&gt;device-manager&lt;/b&gt;&lt;/font&gt;&lt;div&gt;(device-manager-1.0.5.war webapp)&lt;br&gt;&lt;/div&gt;&lt;div&gt;&lt;br&gt;&lt;/div&gt;" style="rounded=1;whiteSpace=wrap;html=1;fillColor=#d5e8d4;strokeColor=#82b366;strokeWidth=3;" parent="1" vertex="1">
          <mxGeometry x="-380" y="370" width="220" height="120" as="geometry" />
        </mxCell>
        <mxCell id="MTEvVDYGK0sBAC2YNGp0-6" value="&lt;font style=&quot;font-size: 18px;&quot;&gt;&lt;b&gt;device-manager-ui&lt;/b&gt;&lt;/font&gt;&lt;div&gt;(DeviceManagerUI.war webapp)&lt;br&gt;&lt;/div&gt;&lt;div&gt;&lt;br&gt;&lt;/div&gt;" style="rounded=1;whiteSpace=wrap;html=1;fillColor=#d5e8d4;strokeColor=#82b366;strokeWidth=3;" parent="1" vertex="1">
          <mxGeometry x="-680" y="370" width="230" height="120" as="geometry" />
        </mxCell>
        <mxCell id="MTEvVDYGK0sBAC2YNGp0-7" value="&lt;font style=&quot;font-size: 18px;&quot;&gt;&lt;b&gt;automatics-core&lt;/b&gt;&lt;/font&gt;&lt;div&gt;(./target/automatics-core-2.29.0-SNAPSHOT.jar)&lt;/div&gt;" style="rounded=0;whiteSpace=wrap;html=1;strokeWidth=3;fillColor=#fff2cc;strokeColor=#d6b656;" parent="1" vertex="1">
          <mxGeometry x="-400" y="620" width="320" height="120" as="geometry" />
        </mxCell>
        <mxCell id="MTEvVDYGK0sBAC2YNGp0-8" value="&lt;font style=&quot;font-size: 18px;&quot;&gt;&lt;b&gt;rpi-provider / java-handler&lt;/b&gt;&lt;/font&gt;&lt;div&gt;(rpi-provider-impl-0.0.1-SNAPSHOT.jar)&lt;/div&gt;&lt;div&gt;&lt;br&gt;&lt;/div&gt;&lt;div&gt;&lt;br&gt;&lt;/div&gt;&lt;div&gt;Device connection provider implementations for RPi&lt;br&gt;&lt;/div&gt;" style="rounded=0;whiteSpace=wrap;html=1;fillColor=#ffe6cc;strokeColor=#d79b00;strokeWidth=3;verticalAlign=top;" parent="1" vertex="1">
          <mxGeometry x="-480" y="800" width="400" height="320" as="geometry" />
        </mxCell>
        <mxCell id="MTEvVDYGK0sBAC2YNGp0-10" value="DeviceConnectionProviderImpl()&lt;div&gt;&lt;br&gt;&lt;/div&gt;" style="rounded=0;whiteSpace=wrap;html=1;fillColor=#ffe6cc;strokeColor=#d79b00;strokeWidth=1;" parent="1" vertex="1">
          <mxGeometry x="-450" y="940" width="320" height="60" as="geometry" />
        </mxCell>
        <mxCell id="5eYZc-xgGTxoTWhnLy-0-5" value="" style="edgeStyle=orthogonalEdgeStyle;rounded=0;orthogonalLoop=1;jettySize=auto;html=1;" edge="1" parent="1" source="5eYZc-xgGTxoTWhnLy-0-3" target="MTEvVDYGK0sBAC2YNGp0-3">
          <mxGeometry relative="1" as="geometry">
            <mxPoint x="-715" y="680" as="targetPoint" />
          </mxGeometry>
        </mxCell>
        <mxCell id="5eYZc-xgGTxoTWhnLy-0-3" value="WEBUI" style="shape=umlActor;verticalLabelPosition=bottom;verticalAlign=top;html=1;outlineConnect=0;fillColor=#f5f5f5;fontColor=#333333;strokeColor=#666666;" vertex="1" parent="1">
          <mxGeometry x="-800" y="650" width="30" height="60" as="geometry" />
        </mxCell>
        <mxCell id="5eYZc-xgGTxoTWhnLy-0-8" value="" style="edgeStyle=orthogonalEdgeStyle;rounded=0;orthogonalLoop=1;jettySize=auto;html=1;fillColor=#d5e8d4;strokeColor=#82b366;" edge="1" parent="1" source="5eYZc-xgGTxoTWhnLy-0-7" target="MTEvVDYGK0sBAC2YNGp0-6">
          <mxGeometry relative="1" as="geometry" />
        </mxCell>
        <mxCell id="5eYZc-xgGTxoTWhnLy-0-7" value="WEBUI" style="shape=umlActor;verticalLabelPosition=bottom;verticalAlign=top;html=1;outlineConnect=0;fillColor=#f5f5f5;strokeColor=#666666;fontColor=#333333;" vertex="1" parent="1">
          <mxGeometry x="-800" y="400" width="30" height="60" as="geometry" />
        </mxCell>
      </root>
    </mxGraphModel>
  </diagram>
</mxfile>
